Coordinates
version=1
nRows=17
nColumns=36
inDegrees=yes

Units are S.I. units (second, meters, Newtons, ...)
If the header above contains a line with 'inDegrees', this indicates whether rotational values are in degrees (yes) or radians (no).

endheader
time	pelvis_tilt	pelvis_list	pelvis_rotation	pelvis_tx	pelvis_ty	pelvis_tz	hip_flexion_r	hip_adduction_r	hip_rotation_r	knee_angle_r	knee_angle_r_beta	ankle_angle_r	subtalar_angle_r	mtp_angle_r	hip_flexion_l	hip_adduction_l	hip_rotation_l	knee_angle_l	knee_angle_l_beta	ankle_angle_l	subtalar_angle_l	mtp_angle_l	lumbar_extension	lumbar_bending	lumbar_rotation	arm_flex_r	arm_add_r	arm_rot_r	elbow_flex_r	pro_sup_r	arm_flex_l	arm_add_l	arm_rot_l	elbow_flex_l	pro_sup_l
      0.00000000	      4.60931699	      1.67834603	     11.56329850	      0.93200185	      0.95663111	     -0.07911279	     -6.73803235	      0.24571452	     -0.01915711	      3.35580868	      0.05856991	      8.13298027	     -9.47919084	     -7.02271311	     -8.11575128	     -0.86106336	      4.23983271	      0.75120719	      0.01311104	      6.26504306	     -6.72238231	     -7.02271311	     -6.50112581	      0.01580909	     -0.87216683	     36.32285988	      6.84269795	     64.10498369	    126.81496057	    109.26728165	     38.54886855	      9.71644620	     63.57236826	    120.68500672	    106.05421839
      0.01666670	      2.50769347	      1.01203466	     11.26710790	      0.93407077	      0.95232751	     -0.07963129	     -4.70081243	      0.77881768	      1.54308848	      2.55590635	      0.04460898	      8.75599462	     -9.10770439	     -7.29337907	     -5.48735367	     -1.00676458	      5.15107785	      0.62968956	      0.01099016	      5.10975527	     -7.29947890	     -7.29337907	     -3.02108090	      0.59922648	     -1.14983553	     36.08581240	      7.11781826	     66.14879469	    129.74350835	    108.21511693	     38.46280627	      8.49373348	     64.29991021	    124.30253986	    101.66977717
      0.03333330	      1.37531347	      1.09099325	     11.07135662	      0.93456580	      0.94790324	     -0.07916314	     -3.86729338	      0.52957472	      1.73551921	      1.92006805	      0.03351151	      8.73969330	     -9.98667131	     -7.42858483	     -4.21121643	     -0.61991010	      5.20004231	      0.70359557	      0.01228006	      5.24566158	     -6.78262607	     -7.42858483	     -1.69106640	      0.03423484	     -0.38621362	     35.07169413	      7.13272954	     67.74177584	    130.80120910	    107.84853019	     38.01505407	      8.08032216	     64.83817118	    126.05568342	     97.47127361
      0.05000000	      1.04103512	      1.32145209	     11.00064546	      0.93481516	      0.94719182	     -0.07861888	     -3.60237705	      0.22459793	      2.08983095	      1.69607028	      0.02960201	      8.94375026	    -10.64003207	     -7.48283447	     -4.02554257	     -0.33213898	      5.62462721	      0.56065502	      0.00978528	      5.56721462	     -6.89607023	     -7.48283447	     -1.42480063	     -0.54304144	      0.34909025	     34.52952842	      7.20090233	     68.81620346	    130.70242173	    106.72648857	     38.29797434	      8.32538830	     65.79481078	    126.16338833	     93.14669919
      0.06666670	      0.80132726	      1.46642863	     10.85342657	      0.93445037	      0.94677953	     -0.07846839	     -3.40637837	      0.06280951	      2.35025123	      1.54927380	      0.02703993	      8.96719824	    -11.23052739	     -7.48447037	     -3.88472276	     -0.14785274	      5.91113520	      0.49952890	      0.00871842	      5.84794682	     -7.23620329	     -7.48447037	     -1.14210355	     -0.74729883	      0.82655518	     34.05717227	      7.30926248	     69.67806779	    130.21601299	    103.62685094	     38.39111356	      8.58872637	     66.31019634	    126.01356245	     91.07304326
      0.08333330	      0.72616442	      1.60179671	     10.52119006	      0.93476014	      0.94667447	     -0.07782456	     -3.24797631	     -0.09725755	      2.62125167	      1.60989206	      0.02809792	      9.11925453	    -11.60767212	     -7.48461981	     -3.92042459	      0.03552919	      6.18170608	      0.47393268	      0.00827169	      6.31322867	     -7.43809307	     -7.48461981	     -0.91698012	     -0.93106292	      1.13286215	     33.55310644	      7.51436903	     69.94618714	    129.82417652	    103.59040662	     38.31658857	      8.90788355	     66.37971780	    125.76305858	     90.79266965
      0.10000000	      0.48635417	      1.70407310	     10.22700440	      0.93431964	      0.94826693	     -0.07732881	     -2.91677408	     -0.23851687	      3.31130109	      1.61924162	      0.02826110	      8.56376205	    -12.87306961	     -7.48526276	     -3.73439716	      0.21085086	      6.49132315	      0.46252217	      0.00807253	      6.29264450	     -8.11264793	     -7.48526276	     -0.46465837	     -1.16317639	      1.53955342	     33.07747966	      7.43721345	     69.68728879	    129.63660137	    102.95094158	     38.23749323	      9.17950788	     66.39965034	    125.11963149	     88.91721463
      0.11666670	      0.42660327	      1.77869250	      9.93657389	      0.93467781	      0.94792532	     -0.07675061	     -2.78849369	     -0.34562382	      3.35093068	      1.68294746	      0.02937297	      8.57535990	    -12.75782395	     -7.48648765	     -3.76536015	      0.32530678	      6.47159107	      0.46709190	      0.00815229	      6.64608998	     -8.00278516	     -7.48648765	     -0.32117661	     -1.26925615	      1.72177654	     32.74561175	      7.51726265	     69.67877537	    129.59370869	    101.06900863	     38.01748115	      9.35167946	     66.33283034	    125.11860639	     86.76647654
      0.13333330	      0.53602700	      1.85020743	      9.77197774	      0.93432249	      0.94595207	     -0.07698303	     -2.86415747	     -0.39678907	      3.64698847	      1.74099198	      0.03038604	      8.36356373	    -13.36988640	     -7.49078964	     -3.97283530	      0.38010748	      6.99807318	      0.45073057	      0.00786673	      6.65781014	     -8.78401041	     -7.49078964	     -0.32900349	     -1.33477754	      1.92954078	     32.86423825	      7.50703463	     69.45331809	    129.39558136	     98.54375539	     38.29209724	      9.56788382	     66.53523143	    124.79709628	     79.19418305
      0.15000000	      0.56849568	      1.91165752	      9.69740944	      0.93455390	      0.94199537	     -0.07672330	     -2.92249380	     -0.43313232	      3.78952277	      1.78299995	      0.03111922	      8.32684670	    -13.71924108	     -7.49372555	     -4.05844609	      0.45123574	      7.33103063	      0.44531337	      0.00777218	      6.87757536	     -9.22348130	     -7.49372555	     -0.30980289	     -1.43243864	      2.06623720	     32.97976766	      7.57627938	     69.03164840	    129.34258313	     97.71679857	     38.45665043	      9.69088838	     66.33826636	    124.71470786	     77.31917411
      0.16666670	      0.52515300	      1.97752330	      9.61005613	      0.93425844	      0.94449814	     -0.07642501	     -2.84736493	     -0.49235252	      3.98832171	      1.87755163	      0.03276946	      8.09935543	    -14.17396402	     -7.49540197	     -4.02813998	      0.53047474	      7.61082512	      0.44518235	      0.00776990	      6.80547291	     -9.66868387	     -7.49540197	     -0.21772650	     -1.53581498	      2.17146439	     33.07612602	      7.61997844	     68.89694664	    129.18355959	     94.72806901	     38.46181191	      9.70553295	     66.20194157	    124.65928142	     75.63050089
      0.18333330	      0.68530885	      2.05521340	      9.59680044	      0.93438483	      0.94688348	     -0.07638033	     -3.07755496	     -0.54913753	      3.87456514	      1.79595306	      0.03134529	      8.24414424	    -13.75182474	     -7.49628156	     -4.21237754	      0.56968389	      7.62942088	      0.44081213	      0.00769362	      6.84451717	     -9.43375477	     -7.49628156	     -0.42179092	     -1.58627564	      2.14404029	     33.22348182	      7.72690299	     68.89937122	    129.06075290	     92.54296744	     38.42590613	      9.64061140	     66.01774112	    124.70052914	     74.65736398
      0.20000000	      0.55512266	      2.03751871	      9.55228068	      0.93437840	      0.94259781	     -0.07673001	     -2.93976159	     -0.55740634	      4.30964687	      1.77556413	      0.03098944	      7.89138509	    -14.58453536	     -7.49667734	     -4.06536945	      0.56337442	      8.20804585	      0.46635769	      0.00813948	      6.63030228	    -10.26127859	     -7.49667734	     -0.19340594	     -1.60874138	      2.19774367	     33.32557936	      7.76429657	     68.72123943	    129.19508856	     93.14880353	     38.47928529	      9.73761040	     65.93252731	    124.58183292	     74.24104167
      0.21666670	      0.56189998	      2.01931152	      9.49558759	      0.93454458	      0.94484870	     -0.07610317	     -2.94781084	     -0.54143164	      4.36013553	      1.74972709	      0.03053850	      7.91092275	    -14.57609598	     -7.49668145	     -4.05038857	      0.50771704	      8.33806329	      0.47832504	      0.00834835	      6.62660886	    -10.21809435	     -7.49668145	     -0.18859210	     -1.60632035	      2.20941347	     33.35836411	      7.82142220	     68.70390785	    129.21737144	     93.16754511	     38.47450670	      9.75117814	     65.91906953	    124.56605108	     74.23370012
      0.23333330	      0.57938331	      1.99765279	      9.48414166	      0.93422777	      0.94700186	     -0.07657394	     -2.99166834	     -0.53256765	      4.52230241	      1.68577272	      0.02942228	      7.90429155	    -14.54738798	     -7.49669170	     -4.05001043	      0.46423826	      8.61301633	      0.49789441	      0.00868990	      6.62685146	    -10.20037842	     -7.49669170	     -0.21419790	     -1.55245963	      2.21414265	     33.36604979	      7.88389845	     68.70218814	    129.27910448	     93.20534691	     38.43250265	      9.76370688	     65.88196445	    124.50563693	     74.20377958
      0.25000000	      0.67375048	      1.97021370	      9.51888165	      0.93863831	      0.94546210	     -0.07476095	     -3.23866076	     -0.44143080	      4.70456138	      1.53752372	      0.02683485	      7.97401814	    -14.65317042	     -7.49671615	     -4.20442285	      0.35663887	      8.95187217	      0.51653817	      0.00901529	      6.62181240	    -10.37522854	     -7.49671615	     -0.21603801	     -1.59963321	      2.24340534	     33.20955690	      7.97149646	     68.67602625	    129.41500387	     93.26546711	     38.18641062	      9.73169704	     65.86743443	    124.53680821	     74.12042640
      0.26666670	      0.77989296	      1.96054542	      9.60756623	      0.93820162	      0.94558633	     -0.07516785	     -3.47636623	     -0.37221399	      4.73234385	      1.47068262	      0.02566825	      7.84983851	    -14.65625436	     -7.49713627	     -4.33943954	      0.27355096	      9.30896642	      0.52519950	      0.00916646	      6.46069721	    -10.77216965	     -7.49713627	     -0.22464860	     -1.61785362	      2.32521713	     33.33602063	      7.98187297	     68.63052061	    129.49231839	     91.77129420	     38.09814869	      9.75890348	     65.92547858	    124.63375569	     73.14056858
